<mxfile host="app.diagrams.net" modified="2024-07-02T10:50:50.023Z" agent="Mozilla/5.0 (Windows NT 10.0; Win64; x64) AppleWebKit/537.36 (KHTML, like Gecko) Chrome/126.0.0.0 Safari/537.36" version="24.4.10" etag="yuJ_6dc1KCd_H2jNjhrC" type="github">
  <diagram name="Page-1" id="THtfEEvh2gyHkh1EJjrB">
    <mxGraphModel>
      <root>
        <mxCell id="0" />
        <mxCell id="1" parent="0" />
      </root>
    </mxGraphModel>
  </diagram>
</mxfile>
